Coordinates
version=1
nRows=8
nColumns=36
inDegrees=yes

Units are S.I. units (second, meters, Newtons, ...)
If the header above contains a line with 'inDegrees', this indicates whether rotational values are in degrees (yes) or radians (no).

endheader
time	pelvis_tilt	pelvis_list	pelvis_rotation	pelvis_tx	pelvis_ty	pelvis_tz	hip_flexion_r	hip_adduction_r	hip_rotation_r	knee_angle_r	knee_angle_r_beta	ankle_angle_r	subtalar_angle_r	mtp_angle_r	hip_flexion_l	hip_adduction_l	hip_rotation_l	knee_angle_l	knee_angle_l_beta	ankle_angle_l	subtalar_angle_l	mtp_angle_l	lumbar_extension	lumbar_bending	lumbar_rotation	arm_flex_r	arm_add_r	arm_rot_r	elbow_flex_r	pro_sup_r	arm_flex_l	arm_add_l	arm_rot_l	elbow_flex_l	pro_sup_l
      1.85000000	    -22.86432567	      2.30811769	     -2.61030748	     -0.24894003	      0.69420262	     -0.54350657	     87.82380854	     -5.59155034	     -2.38472807	    101.52044719	      1.77186606	     31.85393254	    -15.11880230	     -7.47915371	     85.39577143	    -11.40419187	     -1.60582014	    104.01463418	      1.81539784	     30.42666636	      1.19585388	     -7.47915371	    -39.84130360	      0.21141905	     -0.01359385	     69.83770191	    -43.37544757	     10.65244315	    122.82970319	    113.10465076	    112.30358808	    -27.54373723	     45.45260322	     91.67395982	    112.65240237
      1.86000000	    -22.12249081	      2.30869920	     -2.77133122	     -0.24330293	      0.70558769	     -0.54176018	     85.80333658	     -5.06174365	     -2.34625647	    100.30775505	      1.75070059	     30.43500349	    -16.37298617	     -7.47989619	     83.25093688	    -11.55153278	     -1.84212616	    102.70049753	      1.79246183	     29.56170729	      0.76532316	     -7.47989619	    -38.66743498	     -0.33984577	     -0.45779814	     70.85187999	    -46.84601073	     10.85853348	    126.01307361	    112.80646874	    116.41902761	    -28.50173010	     49.49158735	     90.97590804	    112.99027071
      1.87000000	    -21.60906181	      2.25509561	     -2.76060719	     -0.23747822	      0.71739878	     -0.54074993	     83.93243156	     -4.77878787	     -2.32767293	     99.01639568	      1.72816212	     29.45118525	    -16.86997131	     -7.48042018	     81.28312713	    -11.43636677	     -1.95584198	    101.25150965	      1.76717222	     28.92091244	      0.66132228	     -7.48042018	    -37.16090512	     -0.55314582	     -0.95456488	     72.45952200	    -50.60148223	     11.67307836	    129.17613351	    112.71020404	    119.89034077	    -29.26875114	     52.65534901	     90.28127522	    113.16670669
      1.88000000	    -21.48837017	      2.28078264	     -2.53263632	     -0.23175179	      0.72908692	     -0.54072755	     82.46786041	     -4.83562575	     -2.24189938	     97.65172817	      1.70434418	     28.48558016	    -17.10181633	     -7.48075223	     79.66870003	    -10.93181467	     -2.11302377	     99.58167761	      1.73802815	     28.21678533	      0.41053841	     -7.48075223	    -35.14292787	     -0.66184933	     -1.53352131	     74.68022810	    -54.89134860	     12.88060252	    131.91834291	    112.70418088	    123.33344460	    -29.79690346	     56.07226594	     89.55029054	    113.25654544
      1.89000000	    -21.48169721	      2.38154587	     -2.19145694	     -0.22599529	      0.74128460	     -0.54120877	     81.05785283	     -5.12020577	     -2.18163015	     96.13104086	      1.67780318	     27.27382140	    -17.60824729	     -7.48122037	     78.08495149	    -10.18493976	     -2.30917794	     97.70039553	      1.70519358	     27.24411353	     -0.29777850	     -7.48122037	    -32.97144252	     -0.79391454	     -2.36583635	     77.84180159	    -59.20159145	     14.75003776	    134.20822574	    112.55446496	    127.29521774	    -30.29891433	     60.39104359	     88.64841343	    113.28586081
      1.90000000	    -21.53610646	      2.52242861	     -1.71813711	     -0.22009568	      0.75466573	     -0.54258007	     79.55836490	     -5.69277488	     -2.17301970	     94.35857890	      1.64686788	     25.81211217	    -18.17004804	     -7.48248047	     76.43335451	     -9.15053490	     -2.52177673	     95.51348410	      1.66702478	     25.95702024	     -1.35917032	     -7.48248047	    -30.73288773	     -0.59339757	     -3.89787021	     84.23000301	    -62.62163177	     19.84873576	    135.54887329	    111.84692451	    131.62414530	    -31.86908163	     65.37101623	     88.84113806	    113.05894033
      1.91000000	    -21.48695246	      2.86826881	     -1.23713216	     -0.21375713	      0.77007879	     -0.54384697	     77.76942700	     -6.43473279	     -2.06439700	     92.30809111	      1.61108012	     24.88953224	    -17.84416467	     -7.48277771	     74.34882885	     -7.96582215	     -2.88220413	     92.89323082	      1.62129273	     25.00949706	     -1.79144229	     -7.48277771	    -28.91323196	     -1.11802253	     -4.21770454	     89.47674113	    -68.18369330	     22.17003167	    137.39652869	    111.85694466	    135.92565317	    -30.99362179	     69.95275914	     87.83199006	    113.07766465
      1.92000000	    -20.82098193	      2.65421719	     -1.13846246	     -0.20753165	      0.78792139	     -0.54508398	     74.94671955	     -6.67759054	     -2.59404641	     89.64638772	      1.56462463	     23.26349711	    -18.39241094	     -7.48578528	     71.64537704	     -7.31507326	     -2.83624866	     90.13830397	      1.57321019	     23.26171759	     -3.52939945	     -7.48578528	    -27.63637256	     -0.22166419	     -5.73930168	    106.46465958	    -69.15405896	     37.56738416	    136.87561965	    111.73237986	    141.07162033	    -33.33565161	     75.79341161	     88.71997221	    112.66484880
